<svg width="937" height="449" viewBox="0 0 937 449" fill="none" xmlns="http://www.w3.org/2000/svg">
<path d="M416.563 164.423C417.798 151.117 421.211 138.105 426.663 125.906C428.183 122.511 429.856 119.19 431.682 115.945C431.773 115.775 431.795 115.576 431.743 115.391C431.691 115.205 431.569 115.047 431.402 114.949C431.236 114.852 431.038 114.823 430.851 114.869C430.663 114.915 430.501 115.031 430.398 115.195C423.759 127.015 419.108 139.847 416.63 153.177C415.941 156.899 415.423 160.648 415.077 164.423C414.988 165.375 416.475 165.369 416.563 164.423Z" fill="#A8AEDE"/>
<path d="M435.282 118.329C440.481 118.329 444.696 114.114 444.696 108.914C444.696 103.715 440.481 99.5 435.282 99.5C430.082 99.5 425.867 103.715 425.867 108.914C425.867 114.114 430.082 118.329 435.282 118.329Z" fill="#6C63FF"/>
<path d="M417.526 164.673C418.327 156.041 420.541 147.599 424.079 139.685C425.065 137.482 426.15 135.328 427.334 133.223C427.394 133.113 427.408 132.984 427.374 132.863C427.34 132.743 427.261 132.64 427.153 132.577C427.045 132.514 426.917 132.495 426.795 132.525C426.674 132.555 426.568 132.63 426.501 132.736C422.194 140.405 419.177 148.73 417.57 157.377C417.123 159.792 416.787 162.224 416.562 164.673C416.504 165.291 417.469 165.287 417.526 164.673Z" fill="#A8AEDE"/>
<path d="M429.67 134.77C433.043 134.77 435.777 132.035 435.777 128.662C435.777 125.289 433.043 122.554 429.67 122.554C426.297 122.554 423.562 125.289 423.562 128.662C423.562 132.035 426.297 134.77 429.67 134.77Z" fill="#6C63FF"/>
<path d="M416.309 164.096C411.632 156.797 408.185 148.78 406.106 140.364C405.529 138.02 405.06 135.655 404.699 133.266C404.678 133.143 404.61 133.032 404.509 132.958C404.408 132.884 404.283 132.852 404.159 132.868C404.035 132.885 403.922 132.949 403.844 133.047C403.767 133.145 403.73 133.27 403.743 133.394C405.063 142.09 407.804 150.51 411.856 158.317C412.989 160.496 414.22 162.62 415.548 164.689C415.883 165.212 416.642 164.615 416.309 164.096Z" fill="#A8AEDE"/>
<path d="M403.735 134.341C407.108 134.341 409.843 131.606 409.843 128.233C409.843 124.86 407.108 122.126 403.735 122.126C400.362 122.126 397.628 124.86 397.628 128.233C397.628 131.606 400.362 134.341 403.735 134.341Z" fill="#6C63FF"/>
<path d="M397.559 169.5V157.5C397.56 156.307 398.035 155.163 398.879 154.319C399.722 153.476 400.866 153.001 402.059 153H430.059C431.252 153.001 432.396 153.476 433.24 154.319C434.083 155.163 434.558 156.307 434.559 157.5V169.5C434.558 170.693 434.083 171.837 433.24 172.68C432.396 173.524 431.252 173.999 430.059 174H402.059C400.866 173.999 399.722 173.524 398.879 172.68C398.035 171.837 397.56 170.693 397.559 169.5Z" fill="#A8AEDE"/>
<path d="M429.059 93H417.059C415.866 92.9987 414.722 92.5241 413.879 91.6805C413.035 90.8369 412.56 89.6931 412.559 88.5V39.5C412.56 38.3069 413.035 37.1631 413.879 36.3195C414.722 35.4759 415.866 35.0013 417.059 35H429.059C430.252 35.0013 431.396 35.4759 432.24 36.3195C433.083 37.1631 433.558 38.3069 433.559 39.5V88.5C433.558 89.6931 433.083 90.8369 432.24 91.6805C431.396 92.5241 430.252 92.9987 429.059 93Z" fill="#6C63FF"/>
<path d="M433.059 44.5H413.059V48.5H433.059V44.5Z" fill="#CCCCCC"/>
<path d="M433.059 75.5H413.059V79.5H433.059V75.5Z" fill="#CCCCCC"/>
<path d="M459.059 93H447.059C445.866 92.9987 444.722 92.5241 443.879 91.6805C443.035 90.8369 442.56 89.6931 442.559 88.5V39.5C442.56 38.3069 443.035 37.1631 443.879 36.3195C444.722 35.4759 445.866 35.0013 447.059 35H459.059C460.252 35.0013 461.396 35.4759 462.24 36.3195C463.083 37.1631 463.558 38.3069 463.559 39.5V88.5C463.558 89.6931 463.083 90.8369 462.24 91.6805C461.396 92.5241 460.252 92.9987 459.059 93Z" fill="#6C63FF"/>
<path d="M463.059 44.5H443.059V48.5H463.059V44.5Z" fill="#CCCCCC"/>
<path d="M463.059 75.5H443.059V79.5H463.059V75.5Z" fill="#CCCCCC"/>
<path d="M489.059 93H477.059C475.866 92.9987 474.722 92.5241 473.879 91.6805C473.035 90.8369 472.56 89.6931 472.559 88.5V39.5C472.56 38.3069 473.035 37.1631 473.879 36.3195C474.722 35.4759 475.866 35.0013 477.059 35H489.059C490.252 35.0013 491.396 35.4759 492.24 36.3195C493.083 37.1631 493.558 38.3069 493.559 39.5V88.5C493.558 89.6931 493.083 90.8369 492.24 91.6805C491.396 92.5241 490.252 92.9987 489.059 93Z" fill="#6C63FF"/>
<path d="M493.059 44.5H473.059V48.5H493.059V44.5Z" fill="#CCCCCC"/>
<path d="M493.059 75.5H473.059V79.5H493.059V75.5Z" fill="#CCCCCC"/>
<path d="M505.059 174H493.059C491.866 173.999 490.722 173.524 489.879 172.68C489.035 171.837 488.56 170.693 488.559 169.5V120.5C488.56 119.307 489.035 118.163 489.879 117.319C490.722 116.476 491.866 116.001 493.059 116H505.059C506.252 116.001 507.396 116.476 508.24 117.319C509.083 118.163 509.558 119.307 509.559 120.5V169.5C509.558 170.693 509.083 171.837 508.24 172.68C507.396 173.524 506.252 173.999 505.059 174Z" fill="#6C63FF"/>
<path d="M509.059 125.5H489.059V129.5H509.059V125.5Z" fill="#CCCCCC"/>
<path d="M509.059 156.5H489.059V160.5H509.059V156.5Z" fill="#CCCCCC"/>
<path d="M535.059 174H523.059C521.866 173.999 520.722 173.524 519.879 172.68C519.035 171.837 518.56 170.693 518.559 169.5V120.5C518.56 119.307 519.035 118.163 519.879 117.319C520.722 116.476 521.866 116.001 523.059 116H535.059C536.252 116.001 537.396 116.476 538.24 117.319C539.083 118.163 539.558 119.307 539.559 120.5V169.5C539.558 170.693 539.083 171.837 538.24 172.68C537.396 173.524 536.252 173.999 535.059 174Z" fill="#6C63FF"/>
<path d="M539.059 125.5H519.059V129.5H539.059V125.5Z" fill="#CCCCCC"/>
<path d="M539.059 156.5H519.059V160.5H539.059V156.5Z" fill="#CCCCCC"/>
<path d="M565.059 174H553.059C551.866 173.999 550.722 173.524 549.879 172.68C549.035 171.837 548.56 170.693 548.559 169.5V120.5C548.56 119.307 549.035 118.163 549.879 117.319C550.722 116.476 551.866 116.001 553.059 116H565.059C566.252 116.001 567.396 116.476 568.24 117.319C569.083 118.163 569.558 119.307 569.559 120.5V169.5C569.558 170.693 569.083 171.837 568.24 172.68C567.396 173.524 566.252 173.999 565.059 174Z" fill="#6C63FF"/>
<path d="M569.059 125.5H549.059V129.5H569.059V125.5Z" fill="#CCCCCC"/>
<path d="M569.059 156.5H549.059V160.5H569.059V156.5Z" fill="#CCCCCC"/>
<path d="M426.059 255H414.059C412.866 254.999 411.722 254.524 410.879 253.68C410.035 252.837 409.56 251.693 409.559 250.5V201.5C409.56 200.307 410.035 199.163 410.879 198.32C411.722 197.476 412.866 197.001 414.059 197H426.059C427.252 197.001 428.396 197.476 429.24 198.32C430.083 199.163 430.558 200.307 430.559 201.5V250.5C430.558 251.693 430.083 252.837 429.24 253.68C428.396 254.524 427.252 254.999 426.059 255Z" fill="#6C63FF"/>
<path d="M430.059 206.5H410.059V210.5H430.059V206.5Z" fill="#CCCCCC"/>
<path d="M430.059 237.5H410.059V241.5H430.059V237.5Z" fill="#CCCCCC"/>
<path d="M456.059 255H444.059C442.866 254.999 441.722 254.524 440.879 253.68C440.035 252.837 439.56 251.693 439.559 250.5V201.5C439.56 200.307 440.035 199.163 440.879 198.32C441.722 197.476 442.866 197.001 444.059 197H456.059C457.252 197.001 458.396 197.476 459.24 198.32C460.083 199.163 460.558 200.307 460.559 201.5V250.5C460.558 251.693 460.083 252.837 459.24 253.68C458.396 254.524 457.252 254.999 456.059 255Z" fill="#6C63FF"/>
<path d="M460.059 206.5H440.059V210.5H460.059V206.5Z" fill="#CCCCCC"/>
<path d="M460.059 237.5H440.059V241.5H460.059V237.5Z" fill="#CCCCCC"/>
<path d="M486.059 255H474.059C472.866 254.999 471.722 254.524 470.879 253.68C470.035 252.837 469.56 251.693 469.559 250.5V201.5C469.56 200.307 470.035 199.163 470.879 198.32C471.722 197.476 472.866 197.001 474.059 197H486.059C487.252 197.001 488.396 197.476 489.24 198.32C490.083 199.163 490.558 200.307 490.559 201.5V250.5C490.558 251.693 490.083 252.837 489.24 253.68C488.396 254.524 487.252 254.999 486.059 255Z" fill="#6C63FF"/>
<path d="M490.059 206.5H470.059V210.5H490.059V206.5Z" fill="#CCCCCC"/>
<path d="M490.059 237.5H470.059V241.5H490.059V237.5Z" fill="#CCCCCC"/>
<path d="M519.059 93H507.059C505.866 92.9987 504.722 92.5241 503.879 91.6805C503.035 90.8369 502.56 89.6931 502.559 88.5V39.5C502.56 38.3069 503.035 37.1631 503.879 36.3195C504.722 35.4759 505.866 35.0013 507.059 35H519.059C520.252 35.0013 521.396 35.4759 522.24 36.3195C523.083 37.1631 523.558 38.3069 523.559 39.5V88.5C523.558 89.6931 523.083 90.8369 522.24 91.6805C521.396 92.5241 520.252 92.9987 519.059 93Z" fill="#6C63FF"/>
<path d="M523.059 44.5H503.059V48.5H523.059V44.5Z" fill="#CCCCCC"/>
<path d="M523.059 75.5H503.059V79.5H523.059V75.5Z" fill="#CCCCCC"/>
<path d="M549.059 93H537.059C535.866 92.9987 534.722 92.5241 533.879 91.6805C533.035 90.8369 532.56 89.6931 532.559 88.5V39.5C532.56 38.3069 533.035 37.1631 533.879 36.3195C534.722 35.4759 535.866 35.0013 537.059 35H549.059C550.252 35.0013 551.396 35.4759 552.24 36.3195C553.083 37.1631 553.558 38.3069 553.559 39.5V88.5C553.558 89.6931 553.083 90.8369 552.24 91.6805C551.396 92.5241 550.252 92.9987 549.059 93Z" fill="#6C63FF"/>
<path d="M553.059 44.5H533.059V48.5H553.059V44.5Z" fill="#CCCCCC"/>
<path d="M553.059 75.5H533.059V79.5H553.059V75.5Z" fill="#CCCCCC"/>
<path d="M579.059 93H567.059C565.866 92.9987 564.722 92.5241 563.879 91.6805C563.035 90.8369 562.56 89.6931 562.559 88.5V39.5C562.56 38.3069 563.035 37.1631 563.879 36.3195C564.722 35.4759 565.866 35.0013 567.059 35H579.059C580.252 35.0013 581.396 35.4759 582.24 36.3195C583.083 37.1631 583.558 38.3069 583.559 39.5V88.5C583.558 89.6931 583.083 90.8369 582.24 91.6805C581.396 92.5241 580.252 92.9987 579.059 93Z" fill="#6C63FF"/>
<path d="M583.059 44.5H563.059V48.5H583.059V44.5Z" fill="#CCCCCC"/>
<path d="M583.059 75.5H563.059V79.5H583.059V75.5Z" fill="#CCCCCC"/>
<path d="M609.059 93H597.059C595.866 92.9987 594.722 92.5241 593.879 91.6805C593.035 90.8369 592.56 89.6931 592.559 88.5V39.5C592.56 38.3069 593.035 37.1631 593.879 36.3195C594.722 35.4759 595.866 35.0013 597.059 35H609.059C610.252 35.0013 611.396 35.4759 612.24 36.3195C613.083 37.1631 613.558 38.3069 613.559 39.5V88.5C613.558 89.6931 613.083 90.8369 612.24 91.6805C611.396 92.5241 610.252 92.9987 609.059 93Z" fill="#6C63FF"/>
<path d="M613.059 44.5H593.059V48.5H613.059V44.5Z" fill="#CCCCCC"/>
<path d="M613.059 75.5H593.059V79.5H613.059V75.5Z" fill="#CCCCCC"/>
<path d="M654 94.5H369C368.735 94.5 368.48 94.3946 368.293 94.2071C368.105 94.0196 368 93.7652 368 93.5C368 93.2348 368.105 92.9804 368.293 92.7929C368.48 92.6053 368.735 92.5 369 92.5H654C654.265 92.5 654.52 92.6053 654.707 92.7929C654.895 92.9804 655 93.2348 655 93.5C655 93.7652 654.895 94.0196 654.707 94.2071C654.52 94.3946 654.265 94.5 654 94.5Z" fill="#FF6584"/>
<path d="M654 175.5H369C368.735 175.5 368.48 175.395 368.293 175.207C368.105 175.02 368 174.765 368 174.5C368 174.235 368.105 173.98 368.293 173.793C368.48 173.605 368.735 173.5 369 173.5H654C654.265 173.5 654.52 173.605 654.707 173.793C654.895 173.98 655 174.235 655 174.5C655 174.765 654.895 175.02 654.707 175.207C654.52 175.395 654.265 175.5 654 175.5Z" fill="#FF6584"/>
<path d="M654 256.5H369C368.735 256.5 368.48 256.395 368.293 256.207C368.105 256.02 368 255.765 368 255.5C368 255.235 368.105 254.98 368.293 254.793C368.48 254.605 368.735 254.5 369 254.5H654C654.265 254.5 654.52 254.605 654.707 254.793C654.895 254.98 655 255.235 655 255.5C655 255.765 654.895 256.02 654.707 256.207C654.52 256.395 654.265 256.5 654 256.5Z" fill="#FF6584"/>
<path d="M581.563 245.423C582.798 232.117 586.211 219.105 591.663 206.906C593.183 203.511 594.856 200.19 596.682 196.945C596.773 196.775 596.795 196.576 596.743 196.391C596.691 196.205 596.569 196.047 596.402 195.949C596.236 195.852 596.038 195.823 595.851 195.869C595.663 195.915 595.501 196.031 595.398 196.195C588.759 208.015 584.108 220.847 581.63 234.177C580.941 237.899 580.423 241.648 580.077 245.423C579.988 246.375 581.475 246.369 581.563 245.423Z" fill="#A8AEDE"/>
<path d="M600.282 199.329C605.481 199.329 609.696 195.114 609.696 189.914C609.696 184.715 605.481 180.5 600.282 180.5C595.082 180.5 590.867 184.715 590.867 189.914C590.867 195.114 595.082 199.329 600.282 199.329Z" fill="#6C63FF"/>
<path d="M582.526 245.673C583.327 237.041 585.541 228.599 589.079 220.685C590.065 218.482 591.15 216.328 592.334 214.223C592.394 214.113 592.408 213.984 592.374 213.863C592.34 213.743 592.261 213.64 592.153 213.577C592.045 213.514 591.917 213.495 591.795 213.525C591.674 213.555 591.568 213.63 591.501 213.736C587.194 221.405 584.177 229.73 582.57 238.377C582.123 240.792 581.787 243.224 581.562 245.673C581.504 246.291 582.469 246.287 582.526 245.673Z" fill="#A8AEDE"/>
<path d="M594.67 215.77C598.043 215.77 600.777 213.035 600.777 209.662C600.777 206.289 598.043 203.554 594.67 203.554C591.297 203.554 588.562 206.289 588.562 209.662C588.562 213.035 591.297 215.77 594.67 215.77Z" fill="#6C63FF"/>
<path d="M581.309 245.096C576.632 237.797 573.185 229.78 571.106 221.364C570.529 219.021 570.06 216.655 569.699 214.266C569.678 214.143 569.61 214.032 569.509 213.958C569.408 213.884 569.283 213.852 569.159 213.868C569.035 213.885 568.922 213.949 568.844 214.047C568.767 214.145 568.73 214.27 568.743 214.394C570.063 223.09 572.804 231.51 576.856 239.317C577.989 241.496 579.22 243.62 580.548 245.689C580.883 246.212 581.642 245.615 581.309 245.096Z" fill="#A8AEDE"/>
<path d="M568.735 215.341C572.108 215.341 574.843 212.606 574.843 209.233C574.843 205.86 572.108 203.126 568.735 203.126C565.362 203.126 562.628 205.86 562.628 209.233C562.628 212.606 565.362 215.341 568.735 215.341Z" fill="#6C63FF"/>
<path d="M562.559 250.5V238.5C562.56 237.307 563.035 236.163 563.879 235.32C564.722 234.476 565.866 234.001 567.059 234H595.059C596.252 234.001 597.396 234.476 598.24 235.32C599.083 236.163 599.558 237.307 599.559 238.5V250.5C599.558 251.693 599.083 252.837 598.24 253.68C597.396 254.524 596.252 254.999 595.059 255H567.059C565.866 254.999 564.722 254.524 563.879 253.68C563.035 252.837 562.56 251.693 562.559 250.5Z" fill="#A8AEDE"/>
<path d="M382 398.5H1C0.734784 398.5 0.480444 398.395 0.292908 398.207C0.105371 398.02 0 397.765 0 397.5C0 397.235 0.105371 396.98 0.292908 396.793C0.480444 396.605 0.734784 396.5 1 396.5H382C382.265 396.5 382.52 396.605 382.707 396.793C382.895 396.98 383 397.235 383 397.5C383 397.765 382.895 398.02 382.707 398.207C382.52 398.395 382.265 398.5 382 398.5Z" fill="#3F3D56"/>
<path d="M199.059 267.5C213.971 267.5 226.059 255.412 226.059 240.5C226.059 225.588 213.971 213.5 199.059 213.5C184.147 213.5 172.059 225.588 172.059 240.5C172.059 255.412 184.147 267.5 199.059 267.5Z" fill="#2F2E41"/>
<path d="M173.405 413.826L172.69 401.588L219.556 393.003L220.612 411.067L173.405 413.826Z" fill="#FFB8B8"/>
<path d="M175.675 392.641L177.055 416.245L162.194 417.113L159.945 378.648C161.897 378.534 163.852 378.806 165.699 379.447C167.545 380.089 169.248 381.087 170.708 382.387C172.169 383.686 173.359 385.261 174.212 387.02C175.064 388.779 175.561 390.689 175.675 392.641Z" fill="#2F2E41"/>
<path d="M193.789 413.714L186.004 423.185L145.768 397.666L157.257 383.688L193.789 413.714Z" fill="#FFB8B8"/>
<path d="M177.737 427.726L192.751 409.46L204.251 418.913L179.785 448.679C178.275 447.438 177.024 445.911 176.104 444.187C175.184 442.462 174.612 440.573 174.422 438.627C174.232 436.681 174.427 434.717 174.996 432.847C175.564 430.976 176.496 429.236 177.737 427.726Z" fill="#2F2E41"/>
<path d="M171.387 369.67L166.067 394.749C165.944 395.326 165.951 395.924 166.087 396.498C166.223 397.073 166.484 397.61 166.852 398.072C167.219 398.533 167.685 398.908 168.215 399.168C168.744 399.429 169.325 399.569 169.915 399.578L222.213 400.422C222.803 400.431 223.387 400.31 223.924 400.068C224.462 399.825 224.939 399.467 225.321 399.018C225.704 398.569 225.982 398.042 226.137 397.473C226.292 396.904 226.319 396.308 226.217 395.727L221.642 369.805C221.479 368.879 220.994 368.04 220.274 367.436C219.554 366.831 218.643 366.5 217.703 366.5H175.3C174.383 366.5 173.494 366.815 172.782 367.392C172.069 367.969 171.577 368.773 171.387 369.67Z" fill="#2F2E41"/>
<path d="M180.059 378.5C180.059 378.5 129.059 346.5 119.059 363.5C114.059 372 116.559 380.25 120.309 386.375C123.789 391.952 128.784 396.423 134.712 399.266L176.059 419.5L191.059 403.5L181.059 394.5L180.059 378.5Z" fill="#2F2E41"/>
<path d="M206.059 373.5C206.059 373.5 272.059 354.5 259.059 390.5C246.059 426.5 197.059 412.5 197.059 412.5L192.059 397.5L209.059 385.5L206.059 373.5Z" fill="#2F2E41"/>
<path d="M199.398 271.226C212.962 271.226 223.959 260.23 223.959 246.665C223.959 233.101 212.962 222.104 199.398 222.104C185.833 222.104 174.837 233.101 174.837 246.665C174.837 260.23 185.833 271.226 199.398 271.226Z" fill="#FFB8B8"/>
<path d="M200.685 377.469C190.479 377.314 180.325 375.977 170.427 373.482L170.135 373.402L156.429 310.357C155.196 304.817 156.035 299.018 158.786 294.054C161.537 289.09 166.011 285.305 171.362 283.414C187.892 277.483 205.908 277.123 222.662 282.39C228.283 284.201 233.015 288.066 235.913 293.212C238.811 298.358 239.663 304.408 238.297 310.154L222.989 373.35L222.773 373.452C216.411 376.466 208.456 377.469 200.685 377.469Z" fill="#CCCCCC"/>
<path d="M182.274 382.366C182.772 380.983 183.567 379.726 184.603 378.683C185.64 377.64 186.892 376.837 188.272 376.331C189.652 375.824 191.126 375.627 192.591 375.751C194.056 375.876 195.475 376.321 196.75 377.054L223.736 353.63L226.178 372.038L200.177 391.46C198.804 393.519 196.723 395.003 194.328 395.631C191.934 396.258 189.393 395.986 187.186 394.865C184.98 393.744 183.261 391.852 182.355 389.549C181.45 387.245 181.421 384.69 182.274 382.366Z" fill="#FFB8B8"/>
<path d="M208.012 387.476C207.573 387.475 207.136 387.411 206.716 387.285C206.033 387.086 205.408 386.727 204.892 386.237C204.377 385.747 203.986 385.141 203.753 384.469L200.496 375.24C200.191 374.387 200.152 373.462 200.385 372.587C200.617 371.711 201.11 370.927 201.798 370.338L238.567 348.264L224.073 283.603L224.442 283.514C224.592 283.477 239.442 280.097 245.527 296.324C249.789 307.689 265.559 332.401 264.446 349.101C264.235 352.441 262.904 355.612 260.668 358.103C258.432 360.594 255.422 362.259 252.124 362.828L210.736 386.541C209.957 387.145 208.999 387.474 208.012 387.476Z" fill="#CCCCCC"/>
<path d="M212.136 380.173C211.638 378.789 210.843 377.532 209.807 376.489C208.771 375.446 207.519 374.644 206.139 374.137C204.759 373.631 203.284 373.433 201.819 373.558C200.355 373.683 198.935 374.128 197.661 374.86L170.674 351.436L168.233 369.844L194.234 389.267C195.607 391.326 197.688 392.81 200.082 393.437C202.476 394.065 205.017 393.792 207.224 392.671C209.431 391.55 211.15 389.659 212.055 387.355C212.96 385.052 212.989 382.496 212.136 380.173Z" fill="#FFB8B8"/>
<path d="M189.106 387.476C188.12 387.474 187.162 387.145 186.382 386.541L141.994 364.828C138.696 364.259 135.686 362.594 133.45 360.103C131.214 357.612 129.883 354.441 129.672 351.101C128.559 334.401 147.329 307.689 151.591 296.324C157.676 280.097 172.526 283.476 172.677 283.514L173.045 283.603L155.551 350.264L195.32 370.338C196.008 370.927 196.501 371.711 196.733 372.587C196.966 373.462 196.927 374.387 196.622 375.24L193.365 384.469C193.132 385.141 192.741 385.747 192.226 386.237C191.71 386.727 191.085 387.086 190.402 387.285C189.982 387.411 189.545 387.475 189.106 387.476Z" fill="#CCCCCC"/>
<path d="M242.059 397.5H153.059C151.203 397.498 149.424 396.76 148.112 395.447C146.799 394.135 146.061 392.356 146.059 390.5V341.5C146.061 339.644 146.799 337.865 148.112 336.553C149.424 335.24 151.203 334.502 153.059 334.5H242.059C243.915 334.502 245.694 335.24 247.006 336.553C248.319 337.865 249.057 339.644 249.059 341.5V390.5C249.057 392.356 248.319 394.135 247.006 395.447C245.694 396.76 243.915 397.498 242.059 397.5Z" fill="#6C63FF"/>
<path d="M197.559 372C200.873 372 203.559 369.314 203.559 366C203.559 362.686 200.873 360 197.559 360C194.245 360 191.559 362.686 191.559 366C191.559 369.314 194.245 372 197.559 372Z" fill="white"/>
<path d="M174.591 245.666C173.135 241.973 175.523 237.573 179.066 235.785C182.609 233.996 186.885 234.336 190.675 235.515C193.859 236.506 196.844 238.041 199.951 239.254C203.015 240.611 206.361 241.207 209.704 240.99C213.019 240.616 216.317 238.758 217.673 235.71C219.079 232.552 218.123 228.697 215.958 226.002C213.655 223.396 210.674 221.48 207.346 220.467C200.039 217.892 191.598 217.817 184.814 221.559C178.03 225.302 173.42 233.27 174.822 240.889" fill="#2F2E41"/>
<path d="M32.6625 386.818C33.8979 373.513 37.3102 360.501 42.763 348.301C44.2828 344.906 45.9555 341.586 47.7811 338.34C47.8727 338.171 47.8948 337.972 47.8427 337.786C47.7906 337.601 47.6684 337.443 47.5019 337.345C47.3354 337.248 47.1376 337.219 46.9502 337.265C46.7628 337.31 46.6006 337.427 46.4976 337.59C39.8583 349.411 35.2071 362.243 32.7298 375.573C32.0407 379.295 31.5228 383.044 31.176 386.818C31.0879 387.771 32.5749 387.765 32.6625 386.818Z" fill="#A8AEDE"/>
<path d="M51.3814 340.724C56.5809 340.724 60.7958 336.509 60.7958 331.31C60.7958 326.111 56.5809 321.896 51.3814 321.896C46.182 321.896 41.967 326.111 41.967 331.31C41.967 336.509 46.182 340.724 51.3814 340.724Z" fill="#6C63FF"/>
<path d="M33.6255 387.069C34.427 378.437 36.6406 369.995 40.1781 362.081C41.1641 359.878 42.2492 357.724 43.4336 355.619C43.493 355.508 43.5073 355.38 43.4735 355.259C43.4397 355.139 43.3604 355.036 43.2524 354.973C43.1444 354.91 43.0161 354.891 42.8946 354.921C42.773 354.95 42.6678 355.026 42.601 355.132C38.2938 362.801 35.2763 371.125 33.6691 379.773C33.2221 382.188 32.8861 384.62 32.6611 387.069C32.604 387.686 33.5687 387.682 33.6255 387.069Z" fill="#A8AEDE"/>
<path d="M45.7694 357.165C49.1425 357.165 51.8769 354.431 51.8769 351.058C51.8769 347.685 49.1425 344.95 45.7694 344.95C42.3963 344.95 39.6618 347.685 39.6618 351.058C39.6618 354.431 42.3963 357.165 45.7694 357.165Z" fill="#6C63FF"/>
<path d="M32.4083 386.492C27.7312 379.193 24.2845 371.175 22.2059 362.759C21.6286 360.416 21.1594 358.05 20.7983 355.662C20.7774 355.538 20.7095 355.428 20.6087 355.354C20.508 355.279 20.3823 355.247 20.2583 355.264C20.1343 355.281 20.0216 355.345 19.944 355.443C19.8664 355.541 19.8299 355.666 19.8424 355.79C21.163 364.486 23.9039 372.906 27.9554 380.713C29.0882 382.892 30.3191 385.016 31.648 387.085C31.9828 387.607 32.7411 387.011 32.4083 386.492Z" fill="#A8AEDE"/>
<path d="M19.8347 356.736C23.2078 356.736 25.9423 354.002 25.9423 350.629C25.9423 347.256 23.2078 344.521 19.8347 344.521C16.4616 344.521 13.7272 347.256 13.7272 350.629C13.7272 354.002 16.4616 356.736 19.8347 356.736Z" fill="#6C63FF"/>
<path d="M13.6586 391.896V379.896C13.6599 378.703 14.1345 377.559 14.9781 376.715C15.8217 375.872 16.9655 375.397 18.1586 375.396H46.1586C47.3516 375.397 48.4954 375.872 49.3391 376.715C50.1827 377.559 50.6572 378.703 50.6586 379.896V391.896C50.6572 393.089 50.1827 394.233 49.3391 395.076C48.4954 395.92 47.3516 396.394 46.1586 396.396H18.1586C16.9655 396.394 15.8217 395.92 14.9781 395.076C14.1345 394.233 13.6599 393.089 13.6586 391.896Z" fill="#A8AEDE"/>
<path d="M314.409 405.901C314.409 412.478 309.077 415.467 302.5 415.467C295.923 415.467 290.591 412.478 290.591 405.901C290.591 399.324 293.238 391.649 302.5 394.296C311.762 390.326 314.409 399.324 314.409 405.901Z" fill="#FF6584"/>
<path d="M301.92 397.377C301.457 397.378 301.009 397.21 300.661 396.904C300.313 396.599 300.088 396.177 300.029 395.718C299.635 392.436 297.461 386.01 296.545 383.399L296.545 383.398C296.452 383.139 296.424 382.861 296.462 382.588C296.501 382.315 296.604 382.056 296.765 381.832C296.919 381.632 297.113 381.467 297.335 381.347C297.557 381.227 297.802 381.156 298.054 381.138C298.305 381.12 298.558 381.155 298.795 381.241C299.032 381.328 299.248 381.464 299.428 381.64C299.59 381.809 299.715 382.009 299.795 382.229C299.876 382.449 299.91 382.682 299.897 382.916C299.717 386.267 302.16 391.681 303.632 394.61C303.771 394.886 303.84 395.192 303.835 395.501C303.83 395.81 303.749 396.114 303.601 396.385C303.452 396.656 303.24 396.887 302.982 397.058C302.725 397.229 302.429 397.335 302.122 397.366C302.055 397.374 301.987 397.377 301.92 397.377Z" fill="#3F3D56"/>
<path d="M310.732 389.985C314.866 386.602 311.623 379.678 306.449 381.007C305.752 381.173 305.111 381.516 304.585 382.001C301.411 384.999 300.919 392.67 300.919 392.67C300.919 392.67 306.524 393.43 310.732 389.985Z" fill="#3F3D56"/>
</svg>
